<?xml version="1.0" encoding="iso-8859-1"?>
<!-- Generator: Adobe Illustrator 21.0.0, SVG Export Plug-In . SVG Version: 6.00 Build 0)  -->
<svg version="1.1" id="Capa_1" xmlns="http://www.w3.org/2000/svg" xmlns:xlink="http://www.w3.org/1999/xlink" x="0px" y="0px"
	 viewBox="0 0 512 512" style="enable-background:new 0 0 512 512;" xml:space="preserve">
<g>
	<path style="fill:#CCCCCC;" d="M412.903,46.094v19.971l-158.71,27.092L99.097,66.065V46.094C99.097,20.631,119.728,0,145.191,0
		H366.81C392.258,0,412.903,20.631,412.903,46.094z"/>
	<path style="fill:#CCCCCC;" d="M412.903,443.183v22.723c0,25.462-20.645,46.094-46.094,46.094h-12.828h-208.79
		c-25.462,0-46.094-20.631-46.094-46.094v-22.723L256,413.303L412.903,443.183z"/>
</g>
<path style="fill:#A6E2E3;" d="M412.903,66.065v376.932c-0.07,0.116-313.42,0.186-313.42,0.186c-0.213,0-0.386-0.173-0.386-0.386
	V66.451c0-0.213,0.173-0.386,0.386-0.386C99.483,66.065,412.903,66.065,412.903,66.065z"/>
<circle style="opacity:0.6;fill:#333333;enable-background:new    ;" cx="256" cy="477.59" r="20.644"/>
<polygon style="fill:#7CCBCC;" points="412.903,246.366 412.903,443.183 146.856,443.183 373.994,67.744 373.994,66.065 
	412.903,66.065 412.903,190.624 "/>
<g>
	<path style="fill:#4D4D4D;" d="M209.625,290.095c-1.919,0-3.839-0.732-5.303-2.197l-37.532-37.532
		c-1.407-1.406-2.197-3.314-2.197-5.303s0.79-3.897,2.197-5.303l37.532-37.531c2.929-2.929,7.678-2.93,10.606,0
		c2.929,2.929,2.929,7.678,0,10.606L182.7,245.063l32.229,32.229c2.929,2.929,2.929,7.678,0,10.606
		C213.464,289.362,211.544,290.095,209.625,290.095z"/>
	<path style="fill:#4D4D4D;" d="M302.375,290.095c-1.919,0-3.839-0.732-5.304-2.197c-2.929-2.929-2.929-7.678,0-10.606
		l32.229-32.229l-32.229-32.228c-2.929-2.929-2.929-7.678,0-10.606c2.93-2.929,7.678-2.929,10.607,0l37.531,37.531
		c2.929,2.929,2.929,7.678,0,10.606l-37.531,37.532C306.214,289.362,304.294,290.095,302.375,290.095z"/>
	<path style="fill:#4D4D4D;" d="M240.998,320.118c-0.479,0-0.966-0.046-1.454-0.142c-4.064-0.798-6.712-4.741-5.914-8.805
		l26.539-135.107c0.798-4.064,4.739-6.709,8.805-5.914c4.064,0.798,6.713,4.741,5.914,8.805l-26.539,135.107
		C247.646,317.639,244.509,320.118,240.998,320.118z"/>
</g>
<g>
</g>
<g>
</g>
<g>
</g>
<g>
</g>
<g>
</g>
<g>
</g>
<g>
</g>
<g>
</g>
<g>
</g>
<g>
</g>
<g>
</g>
<g>
</g>
<g>
</g>
<g>
</g>
<g>
</g>
</svg>
